<?xml version="1.0" standalone="no"?>
<!DOCTYPE svg PUBLIC "-//W3C//DTD SVG 20010904//EN"
 "http://www.w3.org/TR/2001/REC-SVG-20010904/DTD/svg10.dtd">
<svg version="1.0" xmlns="http://www.w3.org/2000/svg"
 width="512.000000pt" height="512.000000pt" viewBox="0 0 512.000000 512.000000"
 preserveAspectRatio="xMidYMid meet">

<g transform="translate(0.000000,512.000000) scale(0.100000,-0.100000)"
fill="#000000" stroke="none">
<path d="M2014 5110 c-212 -30 -406 -154 -481 -308 -24 -49 -27 -69 -28 -147
0 -101 22 -162 87 -244 l35 -43 -50 -109 c-70 -150 -64 -154 98 -69 l123 64
64 -22 c93 -33 161 -43 278 -43 273 -1 510 123 600 312 71 150 36 308 -98 436
-63 61 -205 135 -302 158 -81 19 -246 27 -326 15z"/>
<path d="M559 4596 c-116 -44 -195 -115 -243 -216 -29 -60 -31 -73 -31 -170 0
-97 2 -110 31 -170 101 -213 365 -295 569 -175 63 36 140 126 166 193 79 201
-8 422 -201 516 -57 27 -77 31 -160 33 -61 2 -108 -2 -131 -11z"/>
<path d="M4319 4596 c-66 -25 -114 -54 -153 -93 -90 -88 -131 -190 -124 -313
6 -100 37 -176 100 -245 91 -100 189 -140 323 -133 149 8 275 92 339 228 29
60 31 73 31 170 0 97 -2 110 -31 170 -39 83 -111 155 -194 194 -57 27 -77 31
-160 33 -61 2 -108 -2 -131 -11z"/>
<path d="M3490 3946 l-115 -63 -65 23 c-104 36 -191 47 -319 41 -132 -6 -206
-24 -306 -72 -186 -90 -287 -227 -287 -390 0 -272 308 -482 677 -462 136 8
204 25 321 83 109 53 199 139 242 231 23 50 27 71 27 148 0 103 -23 165 -88
243 l-36 43 51 103 c49 99 56 137 26 135 -7 0 -65 -29 -128 -63z"/>
<path d="M368 3630 c-51 -13 -109 -51 -147 -97 -65 -78 -61 24 -61 -1745 0
-1763 -4 -1646 58 -1712 38 -40 118 -76 172 -76 92 0 197 76 220 160 6 21 13
395 17 918 l6 882 48 0 49 0 2 -898 3 -899 30 -49 c79 -127 257 -150 357 -46
78 81 73 16 76 874 l3 767 -38 25 c-45 28 -630 528 -655 559 -10 12 -22 38
-27 57 -10 35 -81 652 -81 694 1 11 54 -118 119 -289 65 -170 125 -324 134
-341 15 -28 572 -515 620 -541 88 -47 215 -4 263 90 21 40 21 125 -1 171 -13
26 -95 103 -284 265 l-267 229 -107 282 c-59 156 -106 285 -104 286 2 2 70
-90 151 -204 103 -145 164 -221 204 -254 l57 -47 3 366 c2 365 2 366 -21 417
-29 63 -77 113 -137 140 -42 20 -64 21 -335 23 -159 1 -307 -2 -327 -7z"/>
<path d="M4137 3629 c-84 -20 -146 -72 -184 -155 -23 -51 -23 -52 -21 -417 l3
-366 57 47 c40 33 101 109 204 254 81 114 149 206 151 204 2 -1 -45 -130 -104
-286 l-107 -282 -267 -229 c-289 -247 -302 -263 -301 -355 0 -62 18 -100 66
-142 70 -61 162 -65 238 -10 99 73 585 499 597 525 8 15 67 168 132 338 65
171 118 300 119 289 0 -42 -71 -659 -81 -694 -5 -19 -17 -45 -27 -57 -24 -31
-609 -530 -655 -559 l-38 -25 3 -767 c3 -858 -2 -793 76 -874 100 -104 278
-81 357 46 l30 49 3 899 2 898 49 0 48 0 6 -882 c4 -523 11 -897 17 -918 23
-84 128 -160 220 -160 54 0 134 36 172 76 62 66 58 -51 58 1712 0 1398 -2
1615 -15 1659 -19 63 -80 134 -143 165 -46 22 -55 23 -337 25 -159 1 -307 -2
-328 -8z"/>
</g>
</svg>
