<?xml version="1.0" standalone="no"?>
<!DOCTYPE svg PUBLIC "-//W3C//DTD SVG 20010904//EN"
 "http://www.w3.org/TR/2001/REC-SVG-20010904/DTD/svg10.dtd">
<svg version="1.0" xmlns="http://www.w3.org/2000/svg"
 width="512.000000pt" height="512.000000pt" viewBox="0 0 512.000000 512.000000"
 preserveAspectRatio="xMidYMid meet">

<g transform="translate(0.000000,512.000000) scale(0.100000,-0.100000)"
fill="#000000" stroke="none">
<path d="M2380 5034 c-360 -34 -648 -116 -950 -269 -608 -310 -1064 -865
-1255 -1529 -168 -584 -108 -1223 166 -1776 366 -738 1050 -1230 1886 -1357
139 -21 499 -23 633 -5 311 44 541 115 810 248 727 361 1226 1057 1346 1879
25 165 25 504 1 670 -80 548 -327 1040 -716 1425 -376 372 -855 613 -1376 691
-126 19 -443 32 -545 23z m100 -274 l0 -120 -29 0 c-132 0 -444 -65 -611 -127
-228 -85 -487 -240 -648 -387 l-43 -40 -85 85 -85 86 93 77 c215 179 490 334
748 420 202 67 366 99 605 119 22 2 43 4 48 5 4 1 7 -52 7 -118z m355 99 c416
-42 870 -239 1213 -525 l93 -77 -85 -86 -85 -85 -43 40 c-222 203 -549 374
-868 453 -117 29 -323 61 -391 61 l-29 0 0 119 0 119 48 -5 c26 -2 92 -8 147
-14z m-355 -1241 l0 -863 -609 609 -608 608 36 33 c301 269 743 450 1159 474
l22 1 0 -862z m380 836 c350 -54 703 -219 961 -449 l36 -33 -608 -608 -609
-609 0 863 0 863 63 -6 c34 -4 105 -13 157 -21z m-1866 -526 c-203 -222 -374
-549 -453 -868 -29 -117 -61 -323 -61 -391 l0 -29 -118 0 -118 0 8 103 c35
471 224 934 534 1305 l77 93 86 -85 85 -85 -40 -43z m3409 32 c269 -352 433
-780 465 -1212 l8 -108 -118 0 -118 0 0 29 c0 71 -35 287 -65 407 -80 312
-250 635 -449 852 l-40 43 85 85 84 85 38 -43 c21 -24 70 -86 110 -138z
m-2900 -1318 c-471 -1 -858 -1 -859 1 -2 1 1 48 7 102 38 379 187 739 429
1034 l65 80 608 -607 607 -607 -857 -3z m2591 1069 c213 -277 341 -618 380
-1013 l6 -58 -862 0 -863 0 609 609 609 609 37 -43 c21 -24 59 -71 84 -104z
m-3614 -1260 c0 -132 65 -444 127 -611 85 -228 240 -487 387 -648 l40 -43 -85
-85 -86 -85 -77 93 c-310 371 -499 834 -534 1306 l-8 102 118 0 118 0 0 -29z
m1276 -580 l-609 -609 -37 43 c-271 313 -420 673 -464 1118 l-6 57 862 0 863
0 -609 -609z m2718 552 c-44 -445 -193 -805 -464 -1118 l-37 -43 -609 609
-609 609 863 0 862 0 -6 -57z m394 -50 c-35 -466 -226 -932 -534 -1301 l-77
-93 -86 85 -85 85 40 43 c199 217 369 540 449 852 30 120 65 336 65 407 l0 29
118 0 118 0 -8 -107z m-2391 -1729 c-1 -2 -48 1 -102 7 -379 38 -739 187
-1034 429 l-80 65 607 608 607 607 3 -857 c1 -471 1 -858 -1 -859z m1339 467
c-263 -237 -676 -420 -1031 -456 -33 -3 -79 -8 -102 -11 l-43 -5 0 863 0 863
609 -609 608 -608 -41 -37z m-2640 -102 c30 -34 171 -141 264 -202 175 -113
396 -209 605 -262 119 -30 335 -65 406 -65 l29 0 0 -118 0 -118 -107 8 c-464
34 -932 226 -1301 534 l-93 77 83 84 c45 46 85 83 89 83 3 0 14 -10 25 -21z
m2882 -62 l83 -84 -93 -77 c-369 -309 -835 -499 -1300 -534 l-108 -8 0 118 0
118 29 0 c71 0 287 35 407 65 279 71 537 199 769 380 44 34 89 72 99 84 11 11
22 21 25 21 4 0 44 -37 89 -83z"/>
<path d="M1906 4310 c-63 -16 -153 -70 -197 -117 -22 -24 -55 -74 -72 -111
-29 -61 -32 -76 -32 -163 0 -90 2 -99 37 -171 45 -91 103 -147 196 -191 61
-29 76 -32 162 -32 86 0 101 3 162 32 93 44 151 100 196 191 35 72 37 81 37
172 0 91 -2 100 -37 172 -68 136 -188 217 -336 224 -42 2 -94 -1 -116 -6z"/>
<path d="M2185 3415 c-16 -15 -25 -36 -25 -55 0 -19 9 -40 25 -55 21 -22 33
-25 95 -25 62 0 74 3 95 25 16 15 25 36 25 55 0 19 -9 40 -25 55 -21 22 -33
25 -95 25 -62 0 -74 -3 -95 -25z"/>
<path d="M3160 4267 c-49 -16 -133 -102 -148 -153 -28 -94 -8 -169 63 -239 51
-52 102 -75 165 -75 63 0 114 23 165 75 98 97 101 222 8 325 -65 72 -158 97
-253 67z"/>
<path d="M2783 4097 c-73 -73 -82 -109 -38 -152 41 -42 77 -34 146 32 33 31
62 67 65 80 13 51 -32 103 -88 103 -13 0 -47 -25 -85 -63z"/>
<path d="M2840 3787 c-49 -16 -133 -102 -148 -153 -28 -94 -8 -169 63 -239 51
-52 102 -75 165 -75 63 0 114 23 165 75 98 97 101 222 8 325 -65 72 -158 97
-253 67z"/>
<path d="M1040 3507 c-19 -6 -58 -34 -85 -62 -71 -70 -91 -145 -63 -239 16
-55 99 -138 154 -154 94 -28 169 -8 239 63 102 101 102 229 0 330 -70 71 -152
91 -245 62z"/>
<path d="M1520 3187 c-49 -16 -133 -102 -148 -153 -28 -94 -8 -169 63 -239 51
-52 102 -75 165 -75 63 0 114 23 165 75 102 101 102 229 0 330 -70 71 -152 91
-245 62z"/>
<path d="M905 2855 c-16 -15 -25 -36 -25 -55 0 -19 9 -40 25 -55 21 -22 33
-25 95 -25 62 0 74 3 95 25 33 32 33 78 0 110 -21 22 -33 25 -95 25 -62 0 -74
-3 -95 -25z"/>
<path d="M3786 3550 c-63 -16 -153 -70 -197 -117 -22 -24 -55 -74 -72 -111
-29 -61 -32 -76 -32 -163 0 -90 2 -99 37 -171 45 -91 103 -147 196 -191 61
-29 76 -32 162 -32 86 0 101 3 162 32 93 44 151 100 196 191 35 72 37 81 37
172 0 91 -2 100 -37 172 -68 136 -188 217 -336 224 -42 2 -94 -1 -116 -6z"/>
<path d="M3145 2935 c-16 -15 -25 -36 -25 -55 0 -19 9 -40 25 -55 21 -22 33
-25 95 -25 62 0 74 3 95 25 16 15 25 36 25 55 0 19 -9 40 -25 55 -21 22 -33
25 -95 25 -62 0 -74 -3 -95 -25z"/>
<path d="M1146 2350 c-63 -16 -153 -70 -197 -117 -22 -24 -55 -74 -72 -111
-29 -61 -32 -76 -32 -163 0 -90 2 -99 37 -171 45 -91 103 -147 196 -191 61
-29 76 -32 162 -32 86 0 101 3 162 32 93 44 151 100 196 191 35 72 37 81 37
172 0 91 -2 100 -37 172 -68 136 -188 217 -336 224 -42 2 -94 -1 -116 -6z"/>
<path d="M1785 2295 c-16 -15 -25 -36 -25 -55 0 -19 9 -40 25 -55 21 -22 33
-25 95 -25 62 0 74 3 95 25 16 15 25 36 25 55 0 19 -9 40 -25 55 -21 22 -33
25 -95 25 -62 0 -74 -3 -95 -25z"/>
<path d="M3440 2387 c-49 -16 -133 -102 -148 -153 -28 -94 -8 -169 63 -239
101 -102 229 -102 330 0 98 97 101 222 8 325 -65 72 -158 97 -253 67z"/>
<path d="M4025 2375 c-16 -15 -25 -36 -25 -55 0 -19 9 -40 25 -55 21 -22 33
-25 95 -25 62 0 74 3 95 25 16 15 25 36 25 55 0 19 -9 40 -25 55 -21 22 -33
25 -95 25 -62 0 -74 -3 -95 -25z"/>
<path d="M3920 2067 c-49 -16 -133 -102 -148 -153 -28 -94 -8 -169 63 -239
101 -102 229 -102 330 0 98 97 101 222 8 325 -65 72 -158 97 -253 67z"/>
<path d="M2120 1787 c-49 -16 -133 -102 -148 -153 -28 -94 -8 -169 63 -239
101 -102 229 -102 330 0 102 101 102 229 0 330 -70 71 -152 91 -245 62z"/>
<path d="M1800 1307 c-49 -16 -133 -102 -148 -153 -28 -94 -8 -169 63 -239
101 -102 229 -102 330 0 102 101 102 229 0 330 -70 71 -152 91 -245 62z"/>
<path d="M2223 1137 c-73 -73 -82 -109 -38 -152 41 -42 77 -34 146 32 33 31
62 67 65 80 13 51 -32 103 -88 103 -13 0 -47 -25 -85 -63z"/>
<path d="M2745 1815 c-16 -15 -25 -36 -25 -55 0 -19 9 -40 25 -55 21 -22 33
-25 95 -25 62 0 74 3 95 25 16 15 25 36 25 55 0 19 -9 40 -25 55 -21 22 -33
25 -95 25 -62 0 -74 -3 -95 -25z"/>
<path d="M3026 1590 c-63 -16 -153 -70 -197 -117 -22 -24 -55 -74 -72 -111
-29 -61 -32 -76 -32 -163 0 -90 2 -99 37 -171 45 -91 103 -147 196 -191 61
-29 76 -32 162 -32 86 0 101 3 162 32 93 44 151 100 196 191 35 72 37 81 37
172 0 91 -2 100 -37 172 -68 136 -188 217 -336 224 -42 2 -94 -1 -116 -6z"/>
</g>
</svg>
