<?xml version="1.0" standalone="no"?>
<!DOCTYPE svg PUBLIC "-//W3C//DTD SVG 20010904//EN"
 "http://www.w3.org/TR/2001/REC-SVG-20010904/DTD/svg10.dtd">
<svg version="1.0" xmlns="http://www.w3.org/2000/svg"
 width="512.000000pt" height="512.000000pt" viewBox="0 0 512.000000 512.000000"
 preserveAspectRatio="xMidYMid meet">

<g transform="translate(0.000000,512.000000) scale(0.100000,-0.100000)"
fill="#000000" stroke="none">
<path d="M2044 4896 c-34 -8 -81 -24 -104 -36 -55 -28 -143 -110 -174 -164
-29 -49 -56 -138 -56 -181 l0 -32 -69 -7 c-243 -22 -450 -185 -539 -424 -33
-90 -42 -257 -18 -350 20 -80 20 -80 -6 -75 -38 7 -167 -25 -216 -53 -148 -87
-231 -239 -219 -399 6 -85 36 -168 81 -226 l33 -43 -68 -48 c-162 -114 -259
-306 -259 -513 0 -166 54 -303 168 -426 l65 -70 -13 -60 c-51 -241 119 -476
365 -505 l55 -7 0 -41 c1 -199 154 -429 350 -525 83 -40 192 -70 258 -71 30 0
32 -2 32 -33 0 -45 27 -133 56 -183 35 -59 125 -141 186 -169 29 -13 82 -29
117 -35 215 -38 435 116 481 335 7 34 9 695 8 2035 l-3 1985 -24 58 c-77 194
-289 307 -487 263z m-214 -630 c65 -89 149 -140 247 -152 81 -9 93 -14 105
-39 17 -38 -12 -75 -58 -75 -143 0 -308 90 -385 209 -33 52 -35 67 -12 93 30
33 59 23 103 -36z m-198 -396 c170 -52 298 -195 330 -370 11 -55 14 -61 32
-55 61 17 146 26 165 16 28 -15 36 -48 18 -75 -12 -18 -28 -24 -78 -30 -176
-18 -317 -159 -335 -335 -6 -51 -11 -65 -31 -78 -19 -12 -29 -13 -48 -5 -33
15 -38 42 -25 123 17 102 70 199 148 276 l64 62 -11 67 c-31 175 -148 288
-327 317 -63 10 -78 16 -87 34 -7 16 -7 30 1 48 10 22 18 25 66 25 30 0 83 -9
118 -20z m-466 -855 c16 -24 15 -28 -12 -88 -24 -53 -28 -75 -29 -152 0 -81 3
-97 32 -157 40 -84 97 -141 181 -181 60 -29 77 -32 157 -32 76 0 99 5 147 27
121 56 200 164 220 298 9 57 15 74 34 87 22 14 26 14 50 -2 26 -17 27 -19 21
-93 -15 -194 -176 -373 -371 -414 l-53 -11 -11 -53 c-41 -195 -220 -356 -414
-371 -74 -6 -76 -5 -93 21 -16 23 -16 28 -2 49 12 18 30 25 87 34 39 6 96 24
127 39 71 36 146 118 172 189 32 85 30 89 -42 109 -230 62 -384 295 -348 527
11 71 42 152 68 182 23 25 60 21 79 -8z m805 -853 c108 -70 189 -196 209 -330
27 -168 -51 -354 -188 -452 -60 -43 -82 -48 -106 -24 -29 29 -19 60 33 102 66
52 96 89 129 159 23 50 27 71 27 148 0 76 -5 99 -27 147 -29 63 -92 137 -144
169 -28 17 -34 27 -34 54 0 32 18 54 46 55 5 0 30 -13 55 -28z m-350 -848 c87
-26 149 -62 210 -123 61 -61 97 -123 123 -210 31 -104 16 -181 -34 -181 -31 0
-46 25 -59 100 -29 179 -145 294 -327 323 -63 10 -78 16 -87 34 -7 16 -7 30 1
48 10 22 18 25 65 25 29 0 78 -7 108 -16z"/>
<path d="M2664 4508 c3 -13 6 -35 6 -50 l0 -28 185 0 c297 0 327 -12 530 -209
81 -79 162 -148 191 -163 77 -42 163 -58 306 -58 l126 0 20 -32 c28 -45 77
-72 132 -72 87 1 149 58 158 145 9 93 -62 169 -158 169 -52 0 -90 -20 -128
-66 l-30 -36 -148 4 c-202 4 -217 12 -407 197 -216 209 -247 221 -570 221
l-219 0 6 -22z m1524 -414 c39 -27 19 -94 -28 -94 -47 0 -67 67 -28 94 12 9
25 16 28 16 3 0 16 -7 28 -16z"/>
<path d="M3020 4192 c-19 -11 -44 -33 -55 -50 l-20 -31 -137 -1 -138 0 0 -55
0 -55 138 0 137 -1 20 -31 c83 -131 285 -70 285 87 0 120 -123 193 -230 137z
m101 -92 c5 0 14 -12 20 -26 12 -33 -11 -74 -43 -74 -29 0 -58 28 -58 56 0 25
37 57 58 49 8 -3 18 -5 23 -5z"/>
<path d="M3255 3775 c-36 -13 -95 -67 -95 -87 0 -4 -110 -8 -245 -8 l-245 0 0
-55 0 -55 244 0 245 0 18 -31 c10 -17 35 -39 55 -50 138 -71 285 67 218 205
-36 75 -118 109 -195 81z m90 -115 c36 -40 -7 -100 -58 -81 -31 12 -41 49 -21
78 18 28 55 30 79 3z"/>
<path d="M3897 3456 c-79 -29 -112 -81 -104 -167 l5 -56 -192 -191 c-105 -105
-204 -196 -219 -202 -18 -6 -157 -10 -373 -10 l-344 0 0 -55 0 -55 348 0 c297
0 356 2 398 16 42 15 79 46 254 220 l205 202 52 -5 c88 -9 150 33 173 117 21
78 -31 167 -111 190 -42 12 -45 12 -92 -4z m88 -116 c36 -40 -7 -100 -58 -81
-31 12 -41 49 -21 78 18 28 55 30 79 3z"/>
<path d="M2670 3200 l0 -50 385 0 385 0 16 25 c15 23 15 27 0 50 l-16 25 -385
0 -385 0 0 -50z"/>
<path d="M3255 2495 c-36 -13 -95 -67 -95 -87 0 -4 -110 -8 -245 -8 l-245 0 0
-55 0 -55 244 0 245 0 18 -31 c10 -17 35 -39 55 -50 138 -71 285 67 218 205
-36 75 -118 109 -195 81z m90 -115 c36 -40 -7 -100 -58 -81 -31 12 -41 49 -21
78 18 28 55 30 79 3z"/>
<path d="M3885 2066 c-31 -13 -85 -69 -85 -87 0 -5 -226 -9 -565 -9 l-565 0 0
-50 0 -50 563 0 562 -1 20 -31 c63 -99 198 -103 262 -8 70 102 7 237 -115 247
-27 2 -60 -3 -77 -11z m99 -112 c33 -32 8 -84 -39 -84 -15 0 -31 10 -41 25
-15 23 -15 27 0 50 19 29 56 33 80 9z"/>
<path d="M3233 1634 c-18 -9 -42 -32 -54 -50 l-21 -34 -244 0 -244 0 0 -55 0
-55 243 0 242 0 22 -35 c66 -101 220 -90 273 21 38 78 7 169 -71 209 -37 19
-106 19 -146 -1z m107 -104 c11 -11 20 -28 20 -37 0 -23 -29 -53 -52 -53 -22
0 -58 34 -58 55 0 8 9 24 20 35 11 11 27 20 35 20 8 0 24 -9 35 -20z"/>
<path d="M4120 1221 c-42 -13 -70 -34 -91 -68 l-21 -33 -126 0 c-143 0 -229
-16 -306 -58 -29 -15 -110 -84 -191 -163 -202 -197 -233 -209 -537 -209 l-178
0 0 -27 c0 -16 -3 -38 -6 -50 l-6 -23 219 0 c323 0 354 12 570 221 190 185
205 193 407 197 l148 4 30 -36 c39 -47 76 -66 131 -66 116 0 193 134 135 234
-36 62 -116 97 -178 77z m74 -117 c24 -24 20 -61 -9 -80 -23 -15 -27 -15 -50
0 -42 28 -24 96 25 96 10 0 26 -7 34 -16z"/>
<path d="M2670 1065 l0 -55 163 0 c177 0 207 8 207 54 0 50 -23 56 -203 56
l-167 0 0 -55z"/>
</g>
</svg>
