<?xml version="1.0" standalone="no"?>
<!DOCTYPE svg PUBLIC "-//W3C//DTD SVG 20010904//EN"
 "http://www.w3.org/TR/2001/REC-SVG-20010904/DTD/svg10.dtd">
<svg version="1.0" xmlns="http://www.w3.org/2000/svg"
 width="512.000000pt" height="512.000000pt" viewBox="0 0 512.000000 512.000000"
 preserveAspectRatio="xMidYMid meet">

<g transform="translate(0.000000,512.000000) scale(0.100000,-0.100000)"
fill="#000000" stroke="none">
<path d="M2380 4505 l0 -565 -892 0 c-847 0 -895 -1 -933 -19 -48 -22 -79 -54
-100 -103 -13 -32 -15 -100 -15 -451 l0 -414 -154 -5 c-172 -5 -194 -12 -250
-81 l-31 -39 -3 -646 c-2 -433 0 -659 7 -683 15 -51 48 -88 95 -110 34 -15 67
-19 189 -19 l147 0 0 -578 0 -578 25 -50 c28 -56 70 -88 135 -103 62 -14 3858
-14 3920 0 65 15 107 47 135 103 l25 50 0 578 0 578 148 0 c121 0 154 4 188
19 47 22 80 59 95 110 7 24 9 250 7 683 l-3 646 -31 39 c-56 69 -78 76 -250
81 l-154 5 0 414 c0 351 -2 419 -15 451 -21 49 -52 81 -100 103 -38 18 -86 19
-932 19 l-893 0 0 565 0 565 -180 0 -180 0 0 -565z m1163 -1475 c173 -54 330
-228 368 -407 16 -78 7 -213 -19 -286 -54 -151 -182 -278 -332 -329 -92 -32
-248 -32 -341 0 -312 107 -455 453 -311 750 56 117 208 241 341 277 74 21 218
18 294 -5z m-1640 -18 c306 -111 442 -455 296 -744 -41 -82 -145 -186 -227
-227 -212 -107 -455 -68 -620 100 -96 98 -142 204 -149 344 -9 158 40 285 153
398 70 70 139 112 229 139 83 24 237 20 318 -10z m1467 -1912 l0 -180 -810 0
-810 0 0 180 0 180 810 0 810 0 0 -180z"/>
</g>
</svg>
