<?xml version="1.0" standalone="no"?>
<!DOCTYPE svg PUBLIC "-//W3C//DTD SVG 20010904//EN"
 "http://www.w3.org/TR/2001/REC-SVG-20010904/DTD/svg10.dtd">
<svg version="1.0" xmlns="http://www.w3.org/2000/svg"
 width="512.000000pt" height="512.000000pt" viewBox="0 0 512.000000 512.000000"
 preserveAspectRatio="xMidYMid meet">

<g transform="translate(0.000000,512.000000) scale(0.100000,-0.100000)"
fill="#000000" stroke="none">
<path d="M3548 5104 c-427 -77 -753 -429 -797 -863 -24 -233 38 -464 177 -660
l45 -64 -36 -112 c-44 -133 -48 -200 -14 -260 33 -59 93 -87 175 -83 56 4 81
13 205 77 l142 73 80 -18 c114 -26 302 -24 418 5 358 86 633 352 729 703 20
71 23 107 23 248 0 188 -15 258 -85 408 -187 398 -627 625 -1062 546z m316
-149 c315 -55 559 -272 658 -585 20 -65 23 -95 23 -220 -1 -170 -13 -229 -80
-365 -82 -165 -205 -289 -370 -371 -127 -63 -224 -85 -365 -86 -88 0 -137 5
-209 23 l-95 23 -158 -83 c-167 -87 -210 -98 -216 -54 -2 12 15 79 37 149 23
69 41 139 41 154 0 16 -17 49 -45 84 -72 93 -112 166 -146 267 -28 82 -33 110
-37 224 -3 107 0 145 16 216 36 151 99 265 206 377 197 207 463 295 740 247z"/>
<path d="M3320 4430 c-19 -19 -20 -33 -20 -288 0 -268 0 -269 23 -290 29 -27
67 -28 98 -3 22 17 24 28 27 120 l4 101 124 0 124 0 0 -95 c0 -88 2 -98 25
-120 30 -30 64 -32 99 -4 l26 20 0 270 c0 256 -1 270 -20 289 -30 30 -83 27
-109 -6 -18 -23 -21 -41 -21 -115 l0 -89 -125 0 -125 0 0 89 c0 74 -3 92 -21
115 -26 33 -79 36 -109 6z"/>
<path d="M4082 4434 c-22 -15 -22 -17 -22 -289 0 -269 0 -275 22 -295 42 -39
109 -16 123 42 3 13 5 134 3 270 -3 225 -5 248 -22 267 -23 25 -72 28 -104 5z"/>
<path d="M2039 4010 c-67 -11 -120 -42 -172 -100 -59 -65 -81 -130 -75 -219 9
-117 78 -214 184 -258 l44 -18 0 -147 0 -147 -47 -6 c-246 -30 -439 -97 -610
-212 -307 -206 -490 -522 -535 -924 l-12 -109 -33 -11 c-52 -17 -126 -82 -153
-133 l-25 -48 -53 5 c-177 18 -361 -82 -440 -239 -79 -157 -63 -330 44 -473
l44 -59 0 -404 c0 -451 0 -452 71 -490 32 -17 104 -18 1651 -18 889 0 1624 3
1633 6 42 16 45 45 45 427 l0 365 93 4 c81 3 102 8 168 39 149 71 245 209 256
368 l6 79 208 208 208 208 72 7 c131 14 246 95 305 215 55 113 43 275 -29 380
l-34 49 93 135 c52 74 98 151 104 170 5 19 10 103 10 185 0 219 -17 245 -166
245 -71 0 -83 -3 -102 -23 -51 -54 -8 -127 73 -127 l45 0 0 -118 0 -118 -90
-132 -90 -131 -43 16 c-55 20 -189 21 -244 0 l-41 -16 -91 135 -91 134 0 115
0 115 44 0 c59 0 96 29 96 76 0 58 -26 74 -122 74 -150 0 -168 -27 -168 -250
0 -189 -7 -171 163 -418 l50 -73 -21 -22 c-34 -36 -73 -133 -79 -194 l-5 -58
-195 -196 -196 -197 -104 2 -105 1 -15 30 c-24 48 -91 110 -143 135 -48 23
-49 23 -55 79 -38 356 -152 617 -361 825 -180 180 -438 309 -689 345 -44 7
-95 14 -112 17 l-33 5 0 148 0 148 45 17 c57 22 130 93 158 154 33 72 31 179
-6 254 -60 122 -193 191 -328 168z m143 -175 c71 -48 86 -150 31 -215 -54 -64
-127 -77 -198 -35 -134 78 -77 275 79 275 38 0 61 -6 88 -25z m144 -890 c494
-95 834 -477 883 -991 l7 -74 -493 0 -494 0 -24 -25 c-30 -29 -32 -64 -6 -96
l19 -24 564 -5 563 -5 33 -23 c62 -45 59 -8 63 -812 l4 -735 -1352 -3 -1353
-2 0 733 0 734 23 33 c12 18 35 43 50 54 28 21 40 21 577 26 521 5 549 6 569
24 28 25 27 73 -1 103 l-21 23 -485 0 -484 0 7 63 c42 407 236 712 565 890
110 60 282 112 430 131 65 8 274 -3 356 -19z m2344 -645 c145 -73 175 -267 59
-377 -46 -43 -97 -63 -164 -63 -97 0 -171 47 -211 135 -40 85 -28 174 34 245
72 84 185 108 282 60z m-447 -702 l-148 -148 -19 27 c-11 16 -44 52 -73 82
l-53 54 147 141 147 142 73 -75 74 -75 -148 -148z m-457 -79 c101 -26 191
-137 201 -247 9 -95 -17 -163 -86 -233 -67 -66 -133 -92 -223 -87 l-53 3 -3
287 -2 287 32 4 c38 5 76 1 134 -14z m-3178 -273 c2 -217 -1 -281 -10 -288
-21 -13 -111 -9 -165 7 -68 20 -143 88 -174 157 -29 65 -31 172 -5 231 25 56
94 127 151 154 41 19 63 23 125 21 l75 -3 3 -279z m-95 -443 l97 -5 0 -324 0
-324 -120 0 -120 0 0 336 0 336 23 -7 c12 -4 66 -9 120 -12z"/>
<path d="M1560 2603 c-63 -23 -151 -113 -173 -177 -79 -230 133 -450 367 -382
67 20 144 85 179 151 32 59 31 202 -1 263 -70 132 -230 194 -372 145z m170
-151 c140 -70 79 -285 -77 -269 -57 6 -109 46 -124 96 -38 126 85 232 201 173z"/>
<path d="M2409 2604 c-59 -18 -133 -83 -167 -148 -22 -43 -27 -64 -27 -131 0
-67 5 -88 27 -130 31 -60 77 -104 138 -136 62 -32 184 -33 251 -3 150 69 213
252 138 402 -65 131 -214 192 -360 146z m161 -152 c48 -24 80 -75 80 -127 0
-152 -210 -197 -275 -59 -57 121 75 247 195 186z"/>
<path d="M1091 1414 c-24 -30 -26 -43 -10 -78 19 -42 51 -48 254 -44 183 3
187 4 206 27 25 30 24 76 -1 101 -19 19 -33 20 -224 20 l-205 0 -20 -26z"/>
<path d="M2641 1414 c-34 -43 -26 -86 20 -109 40 -21 368 -21 408 0 46 23 54
66 20 109 l-20 26 -204 0 -204 0 -20 -26z"/>
<path d="M1165 1026 c-45 -19 -83 -70 -90 -119 -4 -24 -5 -126 -3 -227 3 -201
8 -222 66 -265 26 -19 47 -20 397 -26 406 -6 429 -3 441 47 9 37 -6 76 -36 91
-19 10 -114 13 -372 13 l-348 0 0 175 0 175 870 0 870 0 0 -175 0 -175 -355 0
c-238 0 -362 -4 -378 -11 -24 -11 -47 -47 -47 -73 0 -7 9 -25 21 -40 l20 -26
393 0 c392 0 393 0 427 23 65 43 70 65 67 312 -3 209 -4 222 -25 251 -48 67 4
64 -990 64 -724 -1 -904 -3 -928 -14z"/>
</g>
</svg>
